CddbId:79110219:[183, 19275, 26135, 30748, 46483, 61105, 72843, 82163, 85243, 97280, 114693, 125325, 130258, 141038, 154290, 180705, 199660, 218148, 246698, 265083, 267453, 272638, 290295, 305270, 316543]:326700:74:79110219 25 183 19275 26135 30748 46483 61105 72843 82163 85243 97280 114693 125325 130258 141038 154290 180705 199660 218148 246698 265083 267453 272638 290295 305270 316543 4356: 25 0 0 0 0 0 0 0 0 0 0 0 0 0 0 0 0 0 0 0 0 0 0 0 0 0 4356
num_tracks: 25
offsets: [183, 19275, 26135, 30748, 46483, 61105, 72843, 82163, 85243, 97280, 114693, 125325, 130258, 141038, 154290, 180705, 199660, 218148, 246698, 265083, 267453, 272638, 290295, 305270, 316543]
extents: [0, 0, 0, 0, 0, 0, 0, 0, 0, 0, 0, 0, 0, 0, 0, 0, 0, 0, 0, 0, 0, 0, 0, 0, 0]
total_length: 4356
cddb: [2031157785, 25, 183, 19275, 26135, 30748, 46483, 61105, 72843, 82163, 85243, 97280, 114693, 125325, 130258, 141038, 154290, 180705, 199660, 218148, 246698, 265083, 267453, 272638, 290295, 305270, 316543, 4356]
musicbrainz: ('25 183 19275 26135 30748 46483 61105 72843 82163 85243 97280 114693 125325 130258 141038 154290 180705 199660 218148 246698 265083 267453 272638 290295 305270 316543 326715', 'Jm1prrQcJ8F2RGhQA_0cijBCjUI-')

CD record:
Device type    : Removable CD-ROM
Version        : 0
Response Format: 2
Capabilities   : 
Vendor_info    : 'FREECOM_'
Identification : 'DVD+/-RW16H4    '
Revision       : 'FR00'
Device seems to be: Generic mmc2 DVD-R/DVD-RW.
Using generic SCSI-3/mmc   CD-R/CD-RW driver (mmc_cdr).
Driver flags   : MMC-3 SWABAUDIO BURNFREE 
Supported modes: TAO PACKET SAO SAO/R96R RAW/R96R
first: 1 last 25
track:   1 lba:        33 (      132) 00:02:33 adr: 1 control: 0 mode: -1
track:   2 lba:     19125 (    76500) 04:17:00 adr: 1 control: 0 mode: -1
track:   3 lba:     25985 (   103940) 05:48:35 adr: 1 control: 0 mode: -1
track:   4 lba:     30598 (   122392) 06:49:73 adr: 1 control: 0 mode: -1
track:   5 lba:     46333 (   185332) 10:19:58 adr: 1 control: 0 mode: -1
track:   6 lba:     60955 (   243820) 13:34:55 adr: 1 control: 0 mode: -1
track:   7 lba:     72693 (   290772) 16:11:18 adr: 1 control: 0 mode: -1
track:   8 lba:     82013 (   328052) 18:15:38 adr: 1 control: 0 mode: -1
track:   9 lba:     85093 (   340372) 18:56:43 adr: 1 control: 0 mode: -1
track:  10 lba:     97130 (   388520) 21:37:05 adr: 1 control: 0 mode: -1
track:  11 lba:    114543 (   458172) 25:29:18 adr: 1 control: 0 mode: -1
track:  12 lba:    125175 (   500700) 27:51:00 adr: 1 control: 0 mode: -1
track:  13 lba:    130108 (   520432) 28:56:58 adr: 1 control: 0 mode: -1
track:  14 lba:    140888 (   563552) 31:20:38 adr: 1 control: 0 mode: -1
track:  15 lba:    154140 (   616560) 34:17:15 adr: 1 control: 0 mode: -1
track:  16 lba:    180555 (   722220) 40:09:30 adr: 1 control: 0 mode: -1
track:  17 lba:    199510 (   798040) 44:22:10 adr: 1 control: 0 mode: -1
track:  18 lba:    217998 (   871992) 48:28:48 adr: 1 control: 0 mode: -1
track:  19 lba:    246548 (   986192) 54:49:23 adr: 1 control: 0 mode: -1
track:  20 lba:    264933 (  1059732) 58:54:33 adr: 1 control: 0 mode: -1
track:  21 lba:    267303 (  1069212) 59:26:03 adr: 1 control: 0 mode: -1
track:  22 lba:    272488 (  1089952) 60:35:13 adr: 1 control: 0 mode: -1
track:  23 lba:    290145 (  1160580) 64:30:45 adr: 1 control: 0 mode: -1
track:  24 lba:    305120 (  1220480) 67:50:20 adr: 1 control: 0 mode: -1
track:  25 lba:    316393 (  1265572) 70:20:43 adr: 1 control: 0 mode: -1
track:lout lba:    326565 (  1306260) 72:36:15 adr: 1 control: 0 mode: -1
